<svg data-v-fde0c5aa="" xmlns="http://www.w3.org/2000/svg" viewBox="0 0 300 300" class="iconLeft"><!----><defs data-v-fde0c5aa=""><!----></defs><rect data-v-fde0c5aa="" fill="#44158F" x="0" y="0" width="300px" height="300px" class="logo-background-square"></rect><defs data-v-fde0c5aa=""><!----></defs><g data-v-fde0c5aa="" id="9a058089-ad3e-4278-8d06-b3c793bcda5b" fill="#ffffff" transform="matrix(3.5810986609771405,0,0,3.5810986609771405,107.48100620185065,111.03764615874448)"><path d="M1.32 15.68L1.32 5.88L7.25 5.88L7.25 6.97L2.49 6.97L2.49 10.22L7.17 10.22L7.17 11.31L2.49 11.31L2.49 14.59L7.34 14.59L7.34 15.68L1.32 15.68ZM11.72 15.68L8.95 5.88L10.21 5.88L12.77 15.18L12.94 15.18L15.50 5.88L16.76 5.88L13.99 15.68L11.72 15.68ZM20.51 5.88L23.34 15.18L23.51 15.18L23.51 5.88L24.68 5.88L24.68 15.68L22.33 15.68L19.50 6.38L19.33 6.38L19.33 15.68L18.16 15.68L18.16 5.88L20.51 5.88ZM33.47 12.12L33.47 12.29L33.47 12.29Q33.47 13.16 33.19 13.82L33.19 13.82L33.19 13.82Q32.90 14.49 32.42 14.95L32.42 14.95L32.42 14.95Q31.95 15.40 31.31 15.64L31.31 15.64L31.31 15.64Q30.67 15.88 29.99 15.88L29.99 15.88L29.99 15.88Q29.29 15.88 28.66 15.64L28.66 15.64L28.66 15.64Q28.03 15.40 27.55 14.95L27.55 14.95L27.55 14.95Q27.08 14.49 26.79 13.82L26.79 13.82L26.79 13.82Q26.50 13.16 26.50 12.29L26.50 12.29L26.50 12.12L26.50 12.12Q26.50 11.27 26.79 10.61L26.79 10.61L26.79 10.61Q27.08 9.94 27.56 9.48L27.56 9.48L27.56 9.48Q28.04 9.02 28.67 8.78L28.67 8.78L28.67 8.78Q29.30 8.54 29.99 8.54L29.99 8.54L29.99 8.54Q30.67 8.54 31.30 8.78L31.30 8.78L31.30 8.78Q31.93 9.02 32.42 9.48L32.42 9.48L32.42 9.48Q32.90 9.94 33.19 10.61L33.19 10.61L33.19 10.61Q33.47 11.27 33.47 12.12L33.47 12.12ZM29.99 14.84L29.99 14.84L29.99 14.84Q30.49 14.84 30.92 14.66L30.92 14.66L30.92 14.66Q31.35 14.49 31.67 14.15L31.67 14.15L31.67 14.15Q31.99 13.82 32.17 13.35L32.17 13.35L32.17 13.35Q32.35 12.88 32.35 12.29L32.35 12.29L32.35 12.12L32.35 12.12Q32.35 11.56 32.17 11.09L32.17 11.09L32.17 11.09Q31.99 10.63 31.67 10.29L31.67 10.29L31.67 10.29Q31.35 9.95 30.91 9.77L30.91 9.77L30.91 9.77Q30.48 9.58 29.99 9.58L29.99 9.58L29.99 9.58Q29.50 9.58 29.06 9.77L29.06 9.77L29.06 9.77Q28.63 9.95 28.31 10.29L28.31 10.29L28.31 10.29Q27.99 10.63 27.80 11.09L27.80 11.09L27.80 11.09Q27.62 11.56 27.62 12.12L27.62 12.12L27.62 12.29L27.62 12.29Q27.62 12.88 27.80 13.35L27.80 13.35L27.80 13.35Q27.99 13.82 28.31 14.15L28.31 14.15L28.31 14.15Q28.63 14.49 29.06 14.66L29.06 14.66L29.06 14.66Q29.48 14.84 29.99 14.84ZM42.59 8.74L41.50 15.68L39.48 15.68L38.64 9.24L38.47 9.24L37.63 15.68L35.62 15.68L34.52 8.74L35.64 8.74L36.57 15.18L36.74 15.18L37.55 8.74L39.56 8.74L40.38 15.18L40.54 15.18L41.47 8.74L42.59 8.74Z"></path></g><defs data-v-fde0c5aa=""><!----></defs><g data-v-fde0c5aa="" id="fb7c8b66-4896-43ff-b704-8d7835cf3750" stroke="none" fill="#14D9D9" transform="matrix(0.6312159349238635,0,0,0.6312159349238635,40,123.14176012619541)"><path d="M49 0a2.22 2.22 0 0 0-2.2 2.2v5.5c-15.2.4-23.7 3.3-24.1 3.4a2.73 2.73 0 0 0-1.2.9c-1.2 1.4-6.4 7.9-11.9 20.4H6.9A6.91 6.91 0 0 0 0 39.3v.4a6.91 6.91 0 0 0 6.9 6.9h.3v26a8.07 8.07 0 0 0 8.1 8.1h6.2a8.22 8.22 0 0 0 8.2-8.1h17v10.3a2.2 2.2 0 0 0 4.4 0V2.3A2.22 2.22 0 0 0 49 0zm-2.3 68.2H18.4a2.25 2.25 0 0 0-.1 4.5h7a3.67 3.67 0 0 1-3.7 3.6h-6.2a3.67 3.67 0 0 1-3.7-3.6v-28a2.43 2.43 0 0 0-2.4-2.4H6.9a2.48 2.48 0 0 1-2.5-2.5v-.4a2.48 2.48 0 0 1 2.5-2.5h4.4c1.7 0 2.3-1.4 3.1-3.1 0 0 9-17.2 10.2-18.6 2.1-.6 9.8-2.6 22.1-3zM73.6 22.4a20.2 20.2 0 1 0 20.2 20.2 20.21 20.21 0 0 0-20.2-20.2zm0 35.4a15.2 15.2 0 1 1 15.2-15.2 15.19 15.19 0 0 1-15.2 15.2z"></path><path d="M79 37.6h-1.24v-3.5c0-.28-.59-.52-1.32-.52s-1.32.23-1.32.52v3.5h-2.65v-3.5c0-.28-.59-.52-1.32-.52s-1.32.23-1.32.52v3.5h-1.64a2.17 2.17 0 0 0-2.16 2.17v3.67a7.56 7.56 0 0 0 6.79 7.51 8.34 8.34 0 0 0 2 0 7.74 7.74 0 0 0 6.38-7.68v-3.5A2.17 2.17 0 0 0 79 37.6zm-.54 5.84a4.91 4.91 0 1 1-9.82 0v-3.18h9.82z"></path></g><!----></svg>